<?xml version="1.0" encoding="UTF-8"?>
<svg xmlns="http://www.w3.org/2000/svg" xmlns:xlink="http://www.w3.org/1999/xlink" width="515pt" height="515pt" viewBox="0 0 515 515" version="1.1">
<g id="surface19061">
<path style="fill:none;stroke-width:2;stroke-linecap:butt;stroke-linejoin:round;stroke:rgb(0%,0%,0%);stroke-opacity:1;stroke-miterlimit:10;" d="M 0 640 L 128 640 " transform="matrix(1,0,0,-1,1,769)"/>
<path style="fill:none;stroke-width:2;stroke-linecap:butt;stroke-linejoin:round;stroke:rgb(0%,0%,0%);stroke-opacity:1;stroke-miterlimit:10;" d="M 128 640 L 128 768 " transform="matrix(1,0,0,-1,1,769)"/>
<path style="fill:none;stroke-width:2;stroke-linecap:butt;stroke-linejoin:round;stroke:rgb(0%,0%,0%);stroke-opacity:1;stroke-miterlimit:10;" d="M 256 768 L 256 640 " transform="matrix(1,0,0,-1,1,769)"/>
<path style="fill:none;stroke-width:2;stroke-linecap:butt;stroke-linejoin:round;stroke:rgb(0%,0%,0%);stroke-opacity:1;stroke-miterlimit:10;" d="M 384 768 L 384 640 " transform="matrix(1,0,0,-1,1,769)"/>
<path style="fill:none;stroke-width:2;stroke-linecap:butt;stroke-linejoin:round;stroke:rgb(0%,0%,0%);stroke-opacity:1;stroke-miterlimit:10;" d="M 384 640 L 512 640 " transform="matrix(1,0,0,-1,1,769)"/>
<path style="fill:none;stroke-width:2;stroke-linecap:butt;stroke-linejoin:round;stroke:rgb(0%,0%,0%);stroke-opacity:1;stroke-miterlimit:10;" d="M 0 512 L 128 512 " transform="matrix(1,0,0,-1,1,769)"/>
<path style="fill:none;stroke-width:2;stroke-linecap:butt;stroke-linejoin:round;stroke:rgb(0%,0%,0%);stroke-opacity:1;stroke-miterlimit:10;" d="M 128 384 L 0 384 " transform="matrix(1,0,0,-1,1,769)"/>
<path style="fill:none;stroke-width:2;stroke-linecap:butt;stroke-linejoin:round;stroke:rgb(0%,0%,0%);stroke-opacity:1;stroke-miterlimit:10;" d="M 128 256 L 128 384 " transform="matrix(1,0,0,-1,1,769)"/>
<path style="fill:none;stroke-width:2;stroke-linecap:butt;stroke-linejoin:round;stroke:rgb(0%,0%,0%);stroke-opacity:1;stroke-miterlimit:10;" d="M 256 256 L 256 384 " transform="matrix(1,0,0,-1,1,769)"/>
<path style="fill:none;stroke-width:2;stroke-linecap:butt;stroke-linejoin:round;stroke:rgb(0%,0%,0%);stroke-opacity:1;stroke-miterlimit:10;" d="M 384 256 L 384 384 " transform="matrix(1,0,0,-1,1,769)"/>
<path style="fill:none;stroke-width:2;stroke-linecap:butt;stroke-linejoin:round;stroke:rgb(0%,0%,0%);stroke-opacity:1;stroke-miterlimit:10;" d="M 384 384 L 512 384 " transform="matrix(1,0,0,-1,1,769)"/>
<path style="fill:none;stroke-width:2;stroke-linecap:butt;stroke-linejoin:round;stroke:rgb(0%,0%,0%);stroke-opacity:1;stroke-miterlimit:10;" d="M 384 512 L 512 512 " transform="matrix(1,0,0,-1,1,769)"/>
<path style="fill:none;stroke-width:2;stroke-linecap:butt;stroke-linejoin:round;stroke:rgb(100%,64.7%,0%);stroke-opacity:1;stroke-miterlimit:10;" d="M 512 608 L 0 608 " transform="matrix(1,0,0,-1,1,769)"/>
<path style="fill-rule:evenodd;fill:rgb(100%,64.7%,0%);fill-opacity:1;stroke-width:2;stroke-linecap:butt;stroke-linejoin:round;stroke:rgb(100%,64.7%,0%);stroke-opacity:1;stroke-miterlimit:10;" d="M 0 608 L 7 605.667969 L 7 610.332031 Z M 0 608 " transform="matrix(1,0,0,-1,1,769)"/>
<path style="fill:none;stroke-width:2;stroke-linecap:butt;stroke-linejoin:round;stroke:rgb(100%,64.7%,0%);stroke-opacity:1;stroke-miterlimit:10;" d="M 512 544 L 0 544 " transform="matrix(1,0,0,-1,1,769)"/>
<path style="fill-rule:evenodd;fill:rgb(100%,64.7%,0%);fill-opacity:1;stroke-width:2;stroke-linecap:butt;stroke-linejoin:round;stroke:rgb(100%,64.7%,0%);stroke-opacity:1;stroke-miterlimit:10;" d="M 0 544 L 7 541.667969 L 7 546.332031 Z M 0 544 " transform="matrix(1,0,0,-1,1,769)"/>
<path style="fill:none;stroke-width:2;stroke-linecap:butt;stroke-linejoin:round;stroke:rgb(100%,64.7%,0%);stroke-opacity:1;stroke-miterlimit:10;" d="M 0 480 L 512 480 " transform="matrix(1,0,0,-1,1,769)"/>
<path style="fill-rule:evenodd;fill:rgb(100%,64.7%,0%);fill-opacity:1;stroke-width:2;stroke-linecap:butt;stroke-linejoin:round;stroke:rgb(100%,64.7%,0%);stroke-opacity:1;stroke-miterlimit:10;" d="M 512 480 L 505 482.332031 L 505 477.667969 Z M 512 480 " transform="matrix(1,0,0,-1,1,769)"/>
<path style="fill:none;stroke-width:2;stroke-linecap:butt;stroke-linejoin:round;stroke:rgb(100%,64.7%,0%);stroke-opacity:1;stroke-miterlimit:10;" d="M 0 416 L 512 416 " transform="matrix(1,0,0,-1,1,769)"/>
<path style="fill-rule:evenodd;fill:rgb(100%,64.7%,0%);fill-opacity:1;stroke-width:2;stroke-linecap:butt;stroke-linejoin:round;stroke:rgb(100%,64.7%,0%);stroke-opacity:1;stroke-miterlimit:10;" d="M 512 416 L 505 418.332031 L 505 413.667969 Z M 512 416 " transform="matrix(1,0,0,-1,1,769)"/>
<path style="fill:none;stroke-width:2;stroke-linecap:butt;stroke-linejoin:round;stroke:rgb(100%,64.7%,0%);stroke-opacity:1;stroke-miterlimit:10;" d="M 384 544 C 277.332031 544 224 490.667969 224 384 " transform="matrix(1,0,0,-1,1,769)"/>
<path style="fill-rule:evenodd;fill:rgb(100%,64.7%,0%);fill-opacity:1;stroke-width:2;stroke-linecap:butt;stroke-linejoin:round;stroke:rgb(100%,64.7%,0%);stroke-opacity:1;stroke-miterlimit:10;" d="M 224 384 L 226.332031 391 L 221.667969 391 Z M 224 384 " transform="matrix(1,0,0,-1,1,769)"/>
<path style="fill:none;stroke-width:2;stroke-linecap:butt;stroke-linejoin:round;stroke:rgb(100%,64.7%,0%);stroke-opacity:1;stroke-miterlimit:10;" d="M 224 384 L 224 256 " transform="matrix(1,0,0,-1,1,769)"/>
<path style="fill-rule:evenodd;fill:rgb(100%,64.7%,0%);fill-opacity:1;stroke-width:2;stroke-linecap:butt;stroke-linejoin:round;stroke:rgb(100%,64.7%,0%);stroke-opacity:1;stroke-miterlimit:10;" d="M 224 256 L 226.332031 263 L 221.667969 263 Z M 224 256 " transform="matrix(1,0,0,-1,1,769)"/>
<path style="fill:none;stroke-width:2;stroke-linecap:butt;stroke-linejoin:round;stroke:rgb(100%,64.7%,0%);stroke-opacity:1;stroke-miterlimit:10;" d="M 224 768 L 224 640 " transform="matrix(1,0,0,-1,1,769)"/>
<path style="fill-rule:evenodd;fill:rgb(100%,64.7%,0%);fill-opacity:1;stroke-width:2;stroke-linecap:butt;stroke-linejoin:round;stroke:rgb(100%,64.7%,0%);stroke-opacity:1;stroke-miterlimit:10;" d="M 224 640 L 226.332031 647 L 221.667969 647 Z M 224 640 " transform="matrix(1,0,0,-1,1,769)"/>
<path style="fill:none;stroke-width:2;stroke-linecap:butt;stroke-linejoin:round;stroke:rgb(100%,64.7%,0%);stroke-opacity:1;stroke-miterlimit:10;" d="M 224 640 C 224 533.332031 277.332031 480 384 480 " transform="matrix(1,0,0,-1,1,769)"/>
<path style="fill-rule:evenodd;fill:rgb(100%,64.7%,0%);fill-opacity:1;stroke-width:2;stroke-linecap:butt;stroke-linejoin:round;stroke:rgb(100%,64.7%,0%);stroke-opacity:1;stroke-miterlimit:10;" d="M 384 480 L 377 482.332031 L 377 477.667969 Z M 384 480 " transform="matrix(1,0,0,-1,1,769)"/>
<path style="fill:none;stroke-width:2;stroke-linecap:butt;stroke-linejoin:round;stroke:rgb(100%,64.7%,0%);stroke-opacity:1;stroke-miterlimit:10;" d="M 384 608 C 362.667969 608 352 618.667969 352 640 " transform="matrix(1,0,0,-1,1,769)"/>
<path style="fill-rule:evenodd;fill:rgb(100%,64.7%,0%);fill-opacity:1;stroke-width:2;stroke-linecap:butt;stroke-linejoin:round;stroke:rgb(100%,64.7%,0%);stroke-opacity:1;stroke-miterlimit:10;" d="M 352 640 L 349.667969 633 L 354.332031 633 Z M 352 640 " transform="matrix(1,0,0,-1,1,769)"/>
<path style="fill:none;stroke-width:2;stroke-linecap:butt;stroke-linejoin:round;stroke:rgb(100%,64.7%,0%);stroke-opacity:1;stroke-miterlimit:10;" d="M 352 640 L 352 768 " transform="matrix(1,0,0,-1,1,769)"/>
<path style="fill-rule:evenodd;fill:rgb(100%,64.7%,0%);fill-opacity:1;stroke-width:2;stroke-linecap:butt;stroke-linejoin:round;stroke:rgb(100%,64.7%,0%);stroke-opacity:1;stroke-miterlimit:10;" d="M 352 768 L 349.667969 761 L 354.332031 761 Z M 352 768 " transform="matrix(1,0,0,-1,1,769)"/>
<path style="fill:none;stroke-width:2;stroke-linecap:butt;stroke-linejoin:round;stroke:rgb(0%,0%,100%);stroke-opacity:1;stroke-miterlimit:10;" d="M 352 256 L 352 768 " transform="matrix(1,0,0,-1,1,769)"/>
<path style="fill-rule:evenodd;fill:rgb(0%,0%,100%);fill-opacity:1;stroke-width:2;stroke-linecap:butt;stroke-linejoin:round;stroke:rgb(0%,0%,100%);stroke-opacity:1;stroke-miterlimit:10;" d="M 352 768 L 349.667969 761 L 354.332031 761 Z M 352 768 " transform="matrix(1,0,0,-1,1,769)"/>
<path style="fill-rule:evenodd;fill:rgb(100%,100%,100%);fill-opacity:1;stroke-width:2;stroke-linecap:butt;stroke-linejoin:round;stroke:rgb(0%,0%,100%);stroke-opacity:1;stroke-miterlimit:10;" d="M 336 384 L 336 336 L 368 336 L 368 384 Z M 336 384 " transform="matrix(1,0,0,-1,1,769)"/>
</g>
</svg>
