<?xml version="1.0" encoding="UTF-8"?>
<svg xmlns="http://www.w3.org/2000/svg" xmlns:xlink="http://www.w3.org/1999/xlink" width="515pt" height="515pt" viewBox="0 0 515 515" version="1.1">
<g id="surface29721">
<path style="fill:none;stroke-width:2;stroke-linecap:butt;stroke-linejoin:round;stroke:rgb(0%,0%,0%);stroke-opacity:1;stroke-miterlimit:10;" d="M 0 640 L 128 640 " transform="matrix(1,0,0,-1,1,769)"/>
<path style="fill:none;stroke-width:2;stroke-linecap:butt;stroke-linejoin:round;stroke:rgb(0%,0%,0%);stroke-opacity:1;stroke-miterlimit:10;" d="M 128 640 L 128 768 " transform="matrix(1,0,0,-1,1,769)"/>
<path style="fill:none;stroke-width:2;stroke-linecap:butt;stroke-linejoin:round;stroke:rgb(0%,0%,0%);stroke-opacity:1;stroke-miterlimit:10;" d="M 256 768 L 256 640 " transform="matrix(1,0,0,-1,1,769)"/>
<path style="fill:none;stroke-width:2;stroke-linecap:butt;stroke-linejoin:round;stroke:rgb(0%,0%,0%);stroke-opacity:1;stroke-miterlimit:10;" d="M 384 768 L 384 640 " transform="matrix(1,0,0,-1,1,769)"/>
<path style="fill:none;stroke-width:2;stroke-linecap:butt;stroke-linejoin:round;stroke:rgb(0%,0%,0%);stroke-opacity:1;stroke-miterlimit:10;" d="M 384 640 L 512 640 " transform="matrix(1,0,0,-1,1,769)"/>
<path style="fill:none;stroke-width:2;stroke-linecap:butt;stroke-linejoin:round;stroke:rgb(0%,0%,0%);stroke-opacity:1;stroke-miterlimit:10;" d="M 0 512 L 128 512 " transform="matrix(1,0,0,-1,1,769)"/>
<path style="fill:none;stroke-width:2;stroke-linecap:butt;stroke-linejoin:round;stroke:rgb(0%,0%,0%);stroke-opacity:1;stroke-miterlimit:10;" d="M 128 384 L 0 384 " transform="matrix(1,0,0,-1,1,769)"/>
<path style="fill:none;stroke-width:2;stroke-linecap:butt;stroke-linejoin:round;stroke:rgb(0%,0%,0%);stroke-opacity:1;stroke-miterlimit:10;" d="M 128 256 L 128 384 " transform="matrix(1,0,0,-1,1,769)"/>
<path style="fill:none;stroke-width:2;stroke-linecap:butt;stroke-linejoin:round;stroke:rgb(0%,0%,0%);stroke-opacity:1;stroke-miterlimit:10;" d="M 256 256 L 256 384 " transform="matrix(1,0,0,-1,1,769)"/>
<path style="fill:none;stroke-width:2;stroke-linecap:butt;stroke-linejoin:round;stroke:rgb(0%,0%,0%);stroke-opacity:1;stroke-miterlimit:10;" d="M 384 256 L 384 384 " transform="matrix(1,0,0,-1,1,769)"/>
<path style="fill:none;stroke-width:2;stroke-linecap:butt;stroke-linejoin:round;stroke:rgb(0%,0%,0%);stroke-opacity:1;stroke-miterlimit:10;" d="M 384 384 L 512 384 " transform="matrix(1,0,0,-1,1,769)"/>
<path style="fill:none;stroke-width:2;stroke-linecap:butt;stroke-linejoin:round;stroke:rgb(0%,0%,0%);stroke-opacity:1;stroke-miterlimit:10;" d="M 384 512 L 512 512 " transform="matrix(1,0,0,-1,1,769)"/>
<path style="fill:none;stroke-width:2;stroke-linecap:butt;stroke-linejoin:round;stroke:rgb(100%,64.7%,0%);stroke-opacity:1;stroke-miterlimit:10;" d="M 512 544 L 0 544 " transform="matrix(1,0,0,-1,1,769)"/>
<path style="fill-rule:evenodd;fill:rgb(100%,64.7%,0%);fill-opacity:1;stroke-width:2;stroke-linecap:butt;stroke-linejoin:round;stroke:rgb(100%,64.7%,0%);stroke-opacity:1;stroke-miterlimit:10;" d="M 0 544 L 7 541.667969 L 7 546.332031 Z M 0 544 " transform="matrix(1,0,0,-1,1,769)"/>
<path style="fill:none;stroke-width:2;stroke-linecap:butt;stroke-linejoin:round;stroke:rgb(100%,64.7%,0%);stroke-opacity:1;stroke-miterlimit:10;" d="M 0 480 L 512 480 " transform="matrix(1,0,0,-1,1,769)"/>
<path style="fill-rule:evenodd;fill:rgb(100%,64.7%,0%);fill-opacity:1;stroke-width:2;stroke-linecap:butt;stroke-linejoin:round;stroke:rgb(100%,64.7%,0%);stroke-opacity:1;stroke-miterlimit:10;" d="M 512 480 L 505 482.332031 L 505 477.667969 Z M 512 480 " transform="matrix(1,0,0,-1,1,769)"/>
<path style="fill:none;stroke-width:2;stroke-linecap:butt;stroke-linejoin:round;stroke:rgb(100%,64.7%,0%);stroke-opacity:1;stroke-miterlimit:10;" d="M 0 416 L 512 416 " transform="matrix(1,0,0,-1,1,769)"/>
<path style="fill-rule:evenodd;fill:rgb(100%,64.7%,0%);fill-opacity:1;stroke-width:2;stroke-linecap:butt;stroke-linejoin:round;stroke:rgb(100%,64.7%,0%);stroke-opacity:1;stroke-miterlimit:10;" d="M 512 416 L 505 418.332031 L 505 413.667969 Z M 512 416 " transform="matrix(1,0,0,-1,1,769)"/>
<path style="fill:none;stroke-width:2;stroke-linecap:butt;stroke-linejoin:round;stroke:rgb(100%,64.7%,0%);stroke-opacity:1;stroke-miterlimit:10;" d="M 160 768 L 160 256 " transform="matrix(1,0,0,-1,1,769)"/>
<path style="fill-rule:evenodd;fill:rgb(100%,64.7%,0%);fill-opacity:1;stroke-width:2;stroke-linecap:butt;stroke-linejoin:round;stroke:rgb(100%,64.7%,0%);stroke-opacity:1;stroke-miterlimit:10;" d="M 160 256 L 162.332031 263 L 157.667969 263 Z M 160 256 " transform="matrix(1,0,0,-1,1,769)"/>
<path style="fill:none;stroke-width:2;stroke-linecap:butt;stroke-linejoin:round;stroke:rgb(100%,64.7%,0%);stroke-opacity:1;stroke-miterlimit:10;" d="M 224 768 L 224 256 " transform="matrix(1,0,0,-1,1,769)"/>
<path style="fill-rule:evenodd;fill:rgb(100%,64.7%,0%);fill-opacity:1;stroke-width:2;stroke-linecap:butt;stroke-linejoin:round;stroke:rgb(100%,64.7%,0%);stroke-opacity:1;stroke-miterlimit:10;" d="M 224 256 L 226.332031 263 L 221.667969 263 Z M 224 256 " transform="matrix(1,0,0,-1,1,769)"/>
<path style="fill:none;stroke-width:2;stroke-linecap:butt;stroke-linejoin:round;stroke:rgb(100%,64.7%,0%);stroke-opacity:1;stroke-miterlimit:10;" d="M 128 480 C 234.667969 480 288 533.332031 288 640 " transform="matrix(1,0,0,-1,1,769)"/>
<path style="fill-rule:evenodd;fill:rgb(100%,64.7%,0%);fill-opacity:1;stroke-width:2;stroke-linecap:butt;stroke-linejoin:round;stroke:rgb(100%,64.7%,0%);stroke-opacity:1;stroke-miterlimit:10;" d="M 288 640 L 285.667969 633 L 290.332031 633 Z M 288 640 " transform="matrix(1,0,0,-1,1,769)"/>
<path style="fill:none;stroke-width:2;stroke-linecap:butt;stroke-linejoin:round;stroke:rgb(100%,64.7%,0%);stroke-opacity:1;stroke-miterlimit:10;" d="M 288 640 L 288 768 " transform="matrix(1,0,0,-1,1,769)"/>
<path style="fill-rule:evenodd;fill:rgb(100%,64.7%,0%);fill-opacity:1;stroke-width:2;stroke-linecap:butt;stroke-linejoin:round;stroke:rgb(100%,64.7%,0%);stroke-opacity:1;stroke-miterlimit:10;" d="M 288 768 L 285.667969 761 L 290.332031 761 Z M 288 768 " transform="matrix(1,0,0,-1,1,769)"/>
<path style="fill:none;stroke-width:2;stroke-linecap:butt;stroke-linejoin:round;stroke:rgb(100%,64.7%,0%);stroke-opacity:1;stroke-miterlimit:10;" d="M 384 544 C 277.332031 544 224 490.667969 224 384 " transform="matrix(1,0,0,-1,1,769)"/>
<path style="fill-rule:evenodd;fill:rgb(100%,64.7%,0%);fill-opacity:1;stroke-width:2;stroke-linecap:butt;stroke-linejoin:round;stroke:rgb(100%,64.7%,0%);stroke-opacity:1;stroke-miterlimit:10;" d="M 224 384 L 226.332031 391 L 221.667969 391 Z M 224 384 " transform="matrix(1,0,0,-1,1,769)"/>
<path style="fill:none;stroke-width:2;stroke-linecap:butt;stroke-linejoin:round;stroke:rgb(0%,0%,100%);stroke-opacity:1;stroke-miterlimit:10;" d="M 288 256 L 288 384 " transform="matrix(1,0,0,-1,1,769)"/>
<path style="fill-rule:evenodd;fill:rgb(0%,0%,100%);fill-opacity:1;stroke-width:2;stroke-linecap:butt;stroke-linejoin:round;stroke:rgb(0%,0%,100%);stroke-opacity:1;stroke-miterlimit:10;" d="M 288 384 L 285.667969 377 L 290.332031 377 Z M 288 384 " transform="matrix(1,0,0,-1,1,769)"/>
<path style="fill:none;stroke-width:2;stroke-linecap:butt;stroke-linejoin:round;stroke:rgb(0%,0%,100%);stroke-opacity:1;stroke-miterlimit:10;" d="M 288 384 C 288 490.667969 234.667969 544 128 544 " transform="matrix(1,0,0,-1,1,769)"/>
<path style="fill-rule:evenodd;fill:rgb(0%,0%,100%);fill-opacity:1;stroke-width:2;stroke-linecap:butt;stroke-linejoin:round;stroke:rgb(0%,0%,100%);stroke-opacity:1;stroke-miterlimit:10;" d="M 128 544 L 135 541.667969 L 135 546.332031 Z M 128 544 " transform="matrix(1,0,0,-1,1,769)"/>
<path style="fill:none;stroke-width:2;stroke-linecap:butt;stroke-linejoin:round;stroke:rgb(0%,0%,100%);stroke-opacity:1;stroke-miterlimit:10;" d="M 128 544 L 0 544 " transform="matrix(1,0,0,-1,1,769)"/>
<path style="fill-rule:evenodd;fill:rgb(0%,0%,100%);fill-opacity:1;stroke-width:2;stroke-linecap:butt;stroke-linejoin:round;stroke:rgb(0%,0%,100%);stroke-opacity:1;stroke-miterlimit:10;" d="M 0 544 L 7 541.667969 L 7 546.332031 Z M 0 544 " transform="matrix(1,0,0,-1,1,769)"/>
<path style="fill-rule:evenodd;fill:rgb(100%,100%,100%);fill-opacity:1;stroke-width:2;stroke-linecap:butt;stroke-linejoin:round;stroke:rgb(0%,0%,100%);stroke-opacity:1;stroke-miterlimit:10;" d="M 272 384 L 272 336 L 304 336 L 304 384 Z M 272 384 " transform="matrix(1,0,0,-1,1,769)"/>
</g>
</svg>
