<?xml version="1.0" encoding="UTF-8"?>
<svg xmlns="http://www.w3.org/2000/svg" xmlns:xlink="http://www.w3.org/1999/xlink" width="515pt" height="515pt" viewBox="0 0 515 515" version="1.1">
<g id="surface2243">
<path style="fill:none;stroke-width:2;stroke-linecap:butt;stroke-linejoin:round;stroke:rgb(0%,0%,0%);stroke-opacity:1;stroke-miterlimit:10;" d="M 0 704 L 128 704 " transform="matrix(1,0,0,-1,1,833)"/>
<path style="fill:none;stroke-width:2;stroke-linecap:butt;stroke-linejoin:round;stroke:rgb(0%,0%,0%);stroke-opacity:1;stroke-miterlimit:10;" d="M 128 704 L 128 832 " transform="matrix(1,0,0,-1,1,833)"/>
<path style="fill:none;stroke-width:2;stroke-linecap:butt;stroke-linejoin:round;stroke:rgb(0%,0%,0%);stroke-opacity:1;stroke-miterlimit:10;" d="M 384 832 L 384 704 " transform="matrix(1,0,0,-1,1,833)"/>
<path style="fill:none;stroke-width:2;stroke-linecap:butt;stroke-linejoin:round;stroke:rgb(0%,0%,0%);stroke-opacity:1;stroke-miterlimit:10;" d="M 384 704 L 512 704 " transform="matrix(1,0,0,-1,1,833)"/>
<path style="fill:none;stroke-width:2;stroke-linecap:butt;stroke-linejoin:round;stroke:rgb(0%,0%,0%);stroke-opacity:1;stroke-miterlimit:10;" d="M 384 448 L 512 448 " transform="matrix(1,0,0,-1,1,833)"/>
<path style="fill:none;stroke-width:2;stroke-linecap:butt;stroke-linejoin:round;stroke:rgb(0%,0%,0%);stroke-opacity:1;stroke-miterlimit:10;" d="M 384 448 L 384 320 " transform="matrix(1,0,0,-1,1,833)"/>
<path style="fill:none;stroke-width:2;stroke-linecap:butt;stroke-linejoin:round;stroke:rgb(0%,0%,0%);stroke-opacity:1;stroke-miterlimit:10;" d="M 0 448 L 128 448 " transform="matrix(1,0,0,-1,1,833)"/>
<path style="fill:none;stroke-width:2;stroke-linecap:butt;stroke-linejoin:round;stroke:rgb(0%,0%,0%);stroke-opacity:1;stroke-miterlimit:10;" d="M 128 448 L 128 320 " transform="matrix(1,0,0,-1,1,833)"/>
<path style="fill:none;stroke-width:2;stroke-linecap:butt;stroke-linejoin:round;stroke:rgb(100%,64.7%,0%);stroke-opacity:1;stroke-miterlimit:10;" d="M 512 672 L 0 672 " transform="matrix(1,0,0,-1,1,833)"/>
<path style="fill-rule:evenodd;fill:rgb(100%,64.7%,0%);fill-opacity:1;stroke-width:2;stroke-linecap:butt;stroke-linejoin:round;stroke:rgb(100%,64.7%,0%);stroke-opacity:1;stroke-miterlimit:10;" d="M 0 672 L 7 669.667969 L 7 674.332031 Z M 0 672 " transform="matrix(1,0,0,-1,1,833)"/>
<path style="fill:none;stroke-width:2;stroke-linecap:butt;stroke-linejoin:round;stroke:rgb(100%,64.7%,0%);stroke-opacity:1;stroke-miterlimit:10;" d="M 512 608 L 0 608 " transform="matrix(1,0,0,-1,1,833)"/>
<path style="fill-rule:evenodd;fill:rgb(100%,64.7%,0%);fill-opacity:1;stroke-width:2;stroke-linecap:butt;stroke-linejoin:round;stroke:rgb(100%,64.7%,0%);stroke-opacity:1;stroke-miterlimit:10;" d="M 0 608 L 7 605.667969 L 7 610.332031 Z M 0 608 " transform="matrix(1,0,0,-1,1,833)"/>
<path style="fill:none;stroke-width:2;stroke-linecap:butt;stroke-linejoin:round;stroke:rgb(100%,64.7%,0%);stroke-opacity:1;stroke-miterlimit:10;" d="M 512 544 L 0 544 " transform="matrix(1,0,0,-1,1,833)"/>
<path style="fill-rule:evenodd;fill:rgb(100%,64.7%,0%);fill-opacity:1;stroke-width:2;stroke-linecap:butt;stroke-linejoin:round;stroke:rgb(100%,64.7%,0%);stroke-opacity:1;stroke-miterlimit:10;" d="M 0 544 L 7 541.667969 L 7 546.332031 Z M 0 544 " transform="matrix(1,0,0,-1,1,833)"/>
<path style="fill:none;stroke-width:2;stroke-linecap:butt;stroke-linejoin:round;stroke:rgb(100%,64.7%,0%);stroke-opacity:1;stroke-miterlimit:10;" d="M 512 480 L 0 480 " transform="matrix(1,0,0,-1,1,833)"/>
<path style="fill-rule:evenodd;fill:rgb(100%,64.7%,0%);fill-opacity:1;stroke-width:2;stroke-linecap:butt;stroke-linejoin:round;stroke:rgb(100%,64.7%,0%);stroke-opacity:1;stroke-miterlimit:10;" d="M 0 480 L 7 477.667969 L 7 482.332031 Z M 0 480 " transform="matrix(1,0,0,-1,1,833)"/>
<path style="fill:none;stroke-width:2;stroke-linecap:butt;stroke-linejoin:round;stroke:rgb(100%,64.7%,0%);stroke-opacity:1;stroke-miterlimit:10;" d="M 384 672 C 362.667969 672 352 682.667969 352 704 " transform="matrix(1,0,0,-1,1,833)"/>
<path style="fill-rule:evenodd;fill:rgb(100%,64.7%,0%);fill-opacity:1;stroke-width:2;stroke-linecap:butt;stroke-linejoin:round;stroke:rgb(100%,64.7%,0%);stroke-opacity:1;stroke-miterlimit:10;" d="M 352 704 L 349.667969 697 L 354.332031 697 Z M 352 704 " transform="matrix(1,0,0,-1,1,833)"/>
<path style="fill:none;stroke-width:2;stroke-linecap:butt;stroke-linejoin:round;stroke:rgb(100%,64.7%,0%);stroke-opacity:1;stroke-miterlimit:10;" d="M 352 704 L 352 832 " transform="matrix(1,0,0,-1,1,833)"/>
<path style="fill-rule:evenodd;fill:rgb(100%,64.7%,0%);fill-opacity:1;stroke-width:2;stroke-linecap:butt;stroke-linejoin:round;stroke:rgb(100%,64.7%,0%);stroke-opacity:1;stroke-miterlimit:10;" d="M 352 832 L 349.667969 825 L 354.332031 825 Z M 352 832 " transform="matrix(1,0,0,-1,1,833)"/>
<path style="fill:none;stroke-width:2;stroke-linecap:butt;stroke-linejoin:round;stroke:rgb(0%,0%,100%);stroke-opacity:1;stroke-miterlimit:10;" d="M 352 320 L 352 832 " transform="matrix(1,0,0,-1,1,833)"/>
<path style="fill-rule:evenodd;fill:rgb(0%,0%,100%);fill-opacity:1;stroke-width:2;stroke-linecap:butt;stroke-linejoin:round;stroke:rgb(0%,0%,100%);stroke-opacity:1;stroke-miterlimit:10;" d="M 352 832 L 349.667969 825 L 354.332031 825 Z M 352 832 " transform="matrix(1,0,0,-1,1,833)"/>
<path style="fill-rule:evenodd;fill:rgb(100%,100%,100%);fill-opacity:1;stroke-width:2;stroke-linecap:butt;stroke-linejoin:round;stroke:rgb(0%,0%,100%);stroke-opacity:1;stroke-miterlimit:10;" d="M 336 448 L 336 400 L 368 400 L 368 448 Z M 336 448 " transform="matrix(1,0,0,-1,1,833)"/>
</g>
</svg>
